<svg width="24" height="24" viewBox="0 0 24 24" fill="none" xmlns="http://www.w3.org/2000/svg">
<path d="M15.3408 22.0026C15.1273 22.0034 14.9164 21.9563 14.7235 21.8648C14.5307 21.7733 14.3608 21.6397 14.2263 21.474L7.32504 12.901C7.11489 12.6453 7 12.3247 7 11.9937C7 11.6627 7.11489 11.3421 7.32504 11.0864L14.4692 2.51342C14.7117 2.22163 15.0602 2.03813 15.438 2.0033C15.8159 1.96847 16.192 2.08515 16.4838 2.32767C16.7756 2.5702 16.9591 2.91871 16.994 3.29653C17.0288 3.67435 16.9121 4.05053 16.6696 4.34232L10.2827 12.0008L16.4553 19.6594C16.63 19.8691 16.741 20.1245 16.7751 20.3953C16.8092 20.6662 16.765 20.9411 16.6478 21.1876C16.5305 21.4341 16.3451 21.6419 16.1135 21.7863C15.8819 21.9308 15.6137 22.0058 15.3408 22.0026Z" fill="#262626"/>
</svg>
