<svg width="26" height="24" viewBox="0 0 26 24" fill="none" xmlns="http://www.w3.org/2000/svg">
<path d="M15.427 7.66175C15.2586 6.72998 15.387 5.84307 15.8136 5.07263C16.2941 4.20497 17.1361 3.54448 18.1772 3.20622C19.2035 2.87276 20.2969 2.95433 21.2545 3.43659C22.2159 3.92072 22.9294 4.75322 23.2628 5.77946C23.5804 6.75704 23.5126 7.79147 23.0865 8.70867C23.9704 9.20025 24.6333 9.99727 24.9509 10.9749C25.6404 13.0971 24.4775 15.3839 22.3578 16.0726C20.4353 16.6973 18.3785 15.8021 17.4999 14.0528L10.567 16.3054C10.7078 17.1515 10.574 18.0157 10.1747 18.7903C10.1747 18.7903 10.1747 18.7903 10.1747 18.7903L10.0413 18.7216C9.56831 19.6392 8.76302 20.3215 7.77387 20.6429C5.73313 21.306 3.53369 20.1862 2.87103 18.1468C2.55114 17.1622 2.6387 16.1174 3.10396 15.2037L15.427 7.66175ZM15.427 7.66175L8.48668 9.91678C8.07518 9.06396 7.45001 8.42166 6.65195 8.04883L6.58846 8.18473L6.65195 8.04882C5.75291 7.62884 4.68338 7.5891 3.64234 7.92736C1.52318 8.61586 0.357161 10.8953 1.04406 13.0093C1.36046 13.9831 2.02244 14.7774 2.90579 15.2681L15.427 7.66175ZM21.9893 9.59694L21.9893 9.59695C22.8387 9.88395 23.4798 10.5283 23.7515 11.3645C24.2263 12.8256 23.4258 14.3996 21.9681 14.8732C20.5272 15.3414 18.9775 14.5696 18.4853 13.1516C18.4614 13.027 18.3999 12.9101 18.3054 12.8184C18.1377 12.6555 17.8936 12.5988 17.6713 12.671L9.61537 15.2886C9.39734 15.3594 9.23495 15.543 9.19124 15.768C9.16529 15.9015 9.18362 16.0371 9.23934 16.1559C9.67325 17.5863 8.87227 19.1177 7.4305 19.5861C5.97239 20.0599 4.40095 19.2599 3.92769 17.8033C3.65686 16.9698 3.79717 16.0733 4.31573 15.3416L4.31573 15.3416C4.43093 15.1791 4.46251 14.9716 4.40094 14.7822C4.33939 14.5927 4.19192 14.4435 4.00318 14.3797L4.00317 14.3797C3.1535 14.0926 2.51347 13.4508 2.2434 12.6196C1.77173 11.168 2.5735 9.60055 4.03201 9.12665C4.83592 8.86544 5.57338 8.91442 6.17389 9.21879C6.77453 9.52323 7.25443 10.0914 7.52736 10.8992L7.52737 10.8992C7.63797 11.2263 7.99114 11.4037 8.31958 11.297L16.3734 8.68012C16.7019 8.5734 16.8834 8.22233 16.7805 7.89265C16.5267 7.0792 16.5811 6.33778 16.8881 5.73867C17.1951 5.13968 17.763 4.6667 18.5669 4.40549C20.0259 3.93147 21.5939 4.72407 22.0635 6.16915C22.3352 7.00541 22.1952 7.90348 21.6768 8.63502C21.5616 8.79756 21.53 9.00499 21.5916 9.19443C21.6531 9.38392 21.8006 9.53311 21.9893 9.59694Z" fill="#70D4F4" stroke="#70D4F4" stroke-width="0.3"/>
</svg>
