<svg width="36" height="36" viewBox="0 0 36 36" fill="none" xmlns="http://www.w3.org/2000/svg">
<path fill-rule="evenodd" clip-rule="evenodd" d="M30.8464 22.5359C31.6234 23.0576 32.3227 23.6459 32.9332 24.3008C33.1996 24.5783 33.1774 25.0223 32.8888 25.2998C32.6224 25.5551 32.1673 25.5329 31.912 25.2665C31.4014 24.7115 30.8242 24.212 30.1804 23.7791C29.7475 24.4562 29.2369 25.1111 28.6375 25.7105C29.6143 26.654 30.4579 27.6751 31.1683 28.7518C31.2682 28.9072 31.3015 29.0959 31.2682 29.2735C31.2349 29.4622 31.1239 29.6176 30.9685 29.7175C30.8575 29.7841 30.7243 29.8285 30.5911 29.8285C30.358 29.8285 30.1471 29.7175 30.0139 29.5177C29.3368 28.4854 28.5265 27.5198 27.6164 26.6429C27.5634 26.6826 27.5073 26.7255 27.4486 26.7703C27.2613 26.9134 27.048 27.0764 26.8283 27.2201C24.9524 28.4521 22.6214 29.1625 19.9019 29.3179C16.6053 29.5066 12.3651 29.4511 8.97962 27.2201C8.74894 27.0732 8.53806 26.9066 8.33763 26.7483C8.3259 26.739 8.3142 26.7298 8.30253 26.7206C7.41454 27.5863 6.62645 28.5187 5.98265 29.5066C5.77175 29.8174 5.32776 29.9062 5.01696 29.7064C4.86156 29.5954 4.75056 29.44 4.71726 29.2624C4.68396 29.0848 4.71726 28.8961 4.81716 28.7407C5.49426 27.7084 6.30455 26.7206 7.24804 25.7993C6.64865 25.1999 6.11585 24.5561 5.67185 23.8679C5.08356 24.2897 4.53966 24.7559 4.07347 25.2554C3.81817 25.5218 3.37418 25.544 3.09668 25.2887C2.81918 25.0334 2.80808 24.5894 3.06338 24.3119C3.64057 23.7014 4.28437 23.1353 5.00586 22.6469C4.40647 21.3815 4.07347 20.105 4.00687 18.8285C3.90697 16.7639 4.46197 14.7882 5.08356 12.7902C5.09052 12.7665 5.09818 12.7411 5.10619 12.7145C5.16202 12.5293 5.23478 12.2879 5.20566 12.1908C5.19456 12.1464 5.15016 12.0576 5.10576 11.991C5.10576 11.9799 5.05026 11.8689 5.05026 11.8689C4.40647 10.5702 4.11787 8.51673 5.01696 7.07374C5.02238 7.06513 5.0278 7.05648 5.03324 7.04782C5.27312 6.66575 5.54011 6.24051 6.09365 6.20795H6.19355H6.24905C6.3656 6.20795 6.47937 6.20517 6.59315 6.2024C6.70692 6.19962 6.82069 6.19685 6.93724 6.19685C7.34794 6.17465 7.68094 6.17465 8.02503 6.18575C9.47912 6.23015 10.911 6.64085 12.1653 7.37344C13.9191 6.57425 15.906 6.23015 17.915 6.36335C19.9019 6.23015 21.8888 6.57425 23.6426 7.37344C24.8969 6.64085 26.3288 6.23015 27.7829 6.18575C28.0581 6.16907 28.3334 6.17119 28.6039 6.17327C28.6934 6.17396 28.7824 6.17465 28.8706 6.17465C29.1481 6.18575 29.4256 6.18575 29.692 6.18575C30.4246 6.18575 30.8242 7.04044 30.9574 7.32904C31.246 7.95063 31.3126 8.63883 31.3459 9.10502C31.3903 10.0041 31.1461 10.7367 30.8797 11.5137L30.7687 11.8356C30.7687 11.8486 30.7459 11.8883 30.7269 11.9211C30.7136 11.9444 30.7021 11.9642 30.7021 11.9688C30.6577 12.0465 30.6133 12.1464 30.6022 12.1797C30.58 12.3018 30.6688 12.6015 30.7243 12.7791C31.3459 14.7882 31.9009 16.7529 31.801 18.8174C31.7344 20.0606 31.4125 21.3149 30.8464 22.5359ZM25.7183 21.326C25.7849 20.9375 26.1512 20.7044 26.5286 20.771C27.4166 20.9375 28.3046 21.215 29.1481 21.6035C29.5699 20.6489 29.8141 19.6832 29.8585 18.7286C29.9473 16.9859 29.4367 15.1989 28.8706 13.3674C28.7374 12.9456 28.5598 12.3573 28.7263 11.7024C28.7929 11.4471 28.9039 11.2251 28.9927 11.0697C29.4478 10.1484 29.5144 9.06062 29.1592 8.13933H29.0593H28.804H28.7263C28.4377 8.12823 28.1492 8.11713 27.8495 8.12823C26.5841 8.17263 25.2965 8.58333 24.242 9.28262C23.9534 9.48242 23.5649 9.50462 23.2541 9.33812C22.133 8.76093 20.912 8.41683 19.6022 8.32803C18.2147 8.22813 16.8606 8.16153 15.5175 8.37243C14.4519 8.55003 13.4529 8.87192 12.5538 9.33812C12.243 9.49352 11.8545 9.48242 11.5659 9.28262C10.5114 8.58333 9.23492 8.17263 7.95843 8.12823C7.65874 8.11713 7.34794 8.11713 7.04824 8.13933H7.00384H6.74854H6.64865C6.30455 9.04952 6.34895 10.1373 6.78184 10.992C6.90394 11.2251 7.01494 11.4471 7.08154 11.7024C7.25427 12.3393 7.08051 12.9028 6.94831 13.3315C6.94459 13.3435 6.94089 13.3555 6.93724 13.3674C6.37115 15.1989 5.87165 16.9859 5.94935 18.7397C5.99375 19.7276 6.24905 20.7155 6.69305 21.6923C7.59214 21.2705 8.52453 20.9597 9.46802 20.7821C9.84542 20.7155 10.2006 20.9597 10.2783 21.3371C10.3449 21.7145 10.1007 22.0697 9.72332 22.1474C8.92412 22.3028 8.13603 22.5581 7.35904 22.9133C7.74754 23.4905 8.20263 24.0344 8.72433 24.5339C9.55682 23.8679 10.2783 23.3795 10.9887 22.9688C11.1441 22.88 11.3328 22.8578 11.5104 22.9022C11.688 22.9577 11.8434 23.0687 11.9322 23.2352C12.021 23.3906 12.0432 23.5793 11.9988 23.7569C11.9544 23.9345 11.8434 24.0899 11.6769 24.1787C11.0886 24.5117 10.5003 24.9113 9.82322 25.433L10.0563 25.5995C11.2218 26.3654 12.6204 26.8871 14.3187 27.1757C17.5931 27.7417 22.2329 27.9304 25.7738 25.5995C25.8293 25.5606 25.882 25.519 25.9347 25.4774C25.9874 25.4357 26.0402 25.3941 26.0957 25.3553C25.4741 24.8891 24.8969 24.5006 24.3308 24.1787C24.1754 24.0788 24.0533 23.9345 24.0089 23.7569C23.9645 23.5793 23.9867 23.3906 24.0755 23.2352C24.1643 23.0687 24.3197 22.9466 24.4973 22.9022C24.6749 22.8578 24.8636 22.88 25.019 22.9688C25.6961 23.3573 26.3843 23.8346 27.1724 24.4451C27.683 23.9456 28.127 23.4017 28.4932 22.8356C27.7718 22.5137 27.0281 22.2806 26.2733 22.1363C25.8959 22.0697 25.6517 21.7034 25.7183 21.326ZM7.63654 8.70543C8.20264 8.78313 8.74653 8.97182 9.23493 9.24932C9.37922 9.33812 9.47912 9.47132 9.49022 9.63782C9.52352 9.80432 9.47912 9.97082 9.36813 10.0929L8.52453 11.0919C8.42463 11.2251 8.26924 11.2917 8.10274 11.2917C7.96954 11.2917 7.84744 11.2473 7.74754 11.1585C7.63654 11.0586 7.56994 10.9254 7.54774 10.7811C7.53664 10.6368 7.58104 10.4925 7.68094 10.3704L8.05834 9.92642C7.88074 9.87092 7.69204 9.82652 7.50334 9.80432C7.19255 9.77102 6.98165 9.48242 7.02605 9.18272C7.05935 8.88303 7.33684 8.67213 7.63654 8.70543ZM23.0874 19.3613C22.5657 18.6065 22.5435 17.7074 23.0541 17.3522C23.5646 17.0081 24.3971 17.33 24.9299 18.0737C25.4516 18.8285 25.4738 19.7276 24.9632 20.0828C24.4526 20.438 23.6201 20.1161 23.0874 19.3613ZM10.8555 20.094C10.3449 19.7388 10.356 18.8397 10.8888 18.0849C11.4105 17.3301 12.2541 17.0082 12.7647 17.3634C13.2753 17.7186 13.2642 18.6177 12.7314 19.3725C12.1986 20.1273 11.3661 20.4491 10.8555 20.094ZM21.3114 21.4703C21.0117 21.4148 20.7231 21.5924 20.6676 21.8588C20.601 22.1696 20.3235 22.3028 20.1681 22.3472C19.8351 22.4471 19.4466 22.3916 19.2024 22.2029C18.9249 21.992 18.8028 21.5702 18.825 20.993C19.2579 20.7932 19.5576 20.4602 19.5576 20.0606C19.5576 19.4501 18.8916 18.9506 18.0813 18.9506C17.271 18.9506 16.605 19.4501 16.605 20.0606C16.605 20.4602 16.9047 20.8043 17.3376 20.993C17.3598 21.5813 17.2377 21.992 16.9491 22.2029C16.7049 22.3916 16.3164 22.4471 15.9834 22.3472C15.828 22.3028 15.5505 22.1696 15.4839 21.8588C15.4284 21.5924 15.1287 21.4148 14.8401 21.4703C14.5404 21.5258 14.3406 21.7811 14.3961 22.0475C14.5182 22.6358 14.9622 23.0798 15.6171 23.2907C15.8391 23.3573 16.0833 23.4017 16.3164 23.4017C16.8048 23.4017 17.2932 23.2574 17.6706 22.9688C17.8371 22.8467 17.9703 22.6913 18.0813 22.5248C18.1923 22.6913 18.3255 22.8467 18.492 22.9688C18.8583 23.2463 19.3467 23.4017 19.8462 23.4017C20.0793 23.4017 20.3235 23.3684 20.5455 23.2907C21.2004 23.0909 21.6444 22.6358 21.7665 22.0475C21.8109 21.7811 21.6111 21.5258 21.3114 21.4703ZM28.7927 9.18272C28.7483 8.88303 28.4708 8.67213 28.1711 8.70543C27.6161 8.78313 27.0611 8.97182 26.5838 9.24932C26.4395 9.33812 26.3396 9.47132 26.3174 9.63782C26.2841 9.80432 26.3285 9.97082 26.4395 10.0929L27.2831 11.0919C27.3941 11.214 27.5384 11.2917 27.7049 11.2917C27.8381 11.2917 27.9602 11.2473 28.0601 11.1585C28.1711 11.0586 28.2377 10.9254 28.2599 10.7811C28.271 10.6368 28.2266 10.4925 28.1267 10.3704L27.7493 9.92642C27.938 9.87092 28.1156 9.82652 28.3043 9.80432C28.6151 9.77102 28.826 9.48242 28.7927 9.18272Z" fill="white"/>
</svg>
