<svg width="36" height="36" viewBox="0 0 36 36" fill="none" xmlns="http://www.w3.org/2000/svg">
<g clip-path="url(#clip0_1259_36597)">
<path d="M12.4803 16.1306C11.9196 16.9249 11.9079 17.8711 12.4452 18.2449C12.9826 18.6187 13.8587 18.28 14.4194 17.4856C14.9801 16.6913 14.9918 15.7451 14.4544 15.3713C13.9171 14.9975 13.0293 15.3363 12.4803 16.1306Z" fill="white"/>
<path d="M23.753 16.1306C23.1923 15.3363 22.3162 14.9975 21.7788 15.3713C21.2415 15.7451 21.2649 16.6913 21.8139 17.4856C22.3746 18.28 23.2507 18.6187 23.788 18.2449C24.3254 17.8711 24.302 16.9249 23.753 16.1306Z" fill="white"/>
<path d="M31.3462 23.5367L31.1009 22.4036C30.7855 20.9552 30.4701 19.4716 30.3299 17.9998C30.2949 17.5909 30.2715 17.1821 30.2599 16.7732C30.2482 16.4695 30.2365 16.1658 30.2248 15.8504V15.6752C30.1664 13.5141 30.108 11.283 29.1384 9.23874C27.9236 6.6922 25.1201 5.29043 22.5969 5.96795C21.3236 4.95167 19.8751 4.35592 18.4266 4.25079C18.3682 4.22743 18.2864 4.19238 18.193 4.19238C18.1229 4.19238 18.0995 4.19238 18.0528 4.20406H17.936C17.901 4.19238 17.8542 4.19238 17.8075 4.19238C17.7374 4.19238 17.6673 4.21575 17.6673 4.22743C16.1604 4.32088 14.6886 4.92831 13.4036 5.96795C10.8805 5.29043 8.07692 6.6922 6.86206 9.23874C5.89251 11.283 5.8341 13.5141 5.77569 15.6752V15.8504C5.76401 16.1658 5.76401 16.4695 5.74065 16.7732C5.72897 17.1821 5.7056 17.5909 5.67056 17.9998C5.54206 19.4716 5.21499 20.9668 4.89959 22.4153L4.65428 23.5367C4.3272 24.9969 3.9534 26.6557 4.16366 28.256C4.47906 30.5222 6.19622 31.7137 9.28011 31.8071H9.45533C12.0252 31.8071 13.4737 29.9732 14.4433 28.3027C15.2142 28.4429 15.9969 28.513 16.8263 28.513H17.6089C18.8939 28.5247 20.2372 28.5364 21.5456 28.3027C22.5151 29.9732 23.9636 31.8071 26.5335 31.8071C26.5919 31.8071 26.6503 31.8071 26.7087 31.8071C29.7926 31.7137 31.5098 30.5105 31.8252 28.256C32.0588 26.6557 31.6733 24.9969 31.3462 23.5367ZM9.33851 30.0549C7.11905 29.9849 6.09109 29.3774 5.90419 28.0107C5.72897 26.7374 6.05604 25.3006 6.35976 23.9105L6.60507 22.7774C6.93215 21.2822 7.27091 19.7286 7.41108 18.1399C7.44613 17.7077 7.46949 17.2638 7.49285 16.8199C7.50454 16.4461 7.51622 16.0723 7.5279 15.6985C7.57462 13.7244 7.63303 11.6801 8.45073 9.97466C9.10488 8.59626 10.4482 7.66175 11.8383 7.54494C11.6865 7.7552 11.5463 7.9421 11.4295 8.11732C9.89922 10.4419 9.37356 13.1987 9.08152 15.3598C9.0348 15.6752 8.99975 15.9906 8.96471 16.306L8.94135 16.4812C8.84789 17.2405 8.75444 18.0114 8.61427 18.7707L8.48577 19.4366C8.22878 20.7332 7.93675 22.1934 8.404 23.6536C8.87126 25.1371 10.0511 26.4804 11.6281 27.3449C11.9435 27.5201 12.2822 27.6719 12.7027 27.8238C11.6748 29.4475 10.6936 30.09 9.33851 30.0549ZM18.9406 26.8192V23.9339C20.0854 23.6419 20.9264 22.8359 20.9264 21.8663C20.9264 20.6514 19.6181 19.6702 18.0061 19.6702C16.3941 19.6702 15.0857 20.6514 15.0857 21.8663C15.0857 22.941 16.1254 23.8288 17.4804 24.0157V26.7842C15.7516 26.7258 13.976 26.6323 12.4691 25.8029C11.301 25.1604 10.4015 24.1558 10.0744 23.1162C9.74736 22.0882 9.98099 20.9084 10.2146 19.7169C10.2613 19.5067 10.2964 19.2964 10.3314 19.0861C10.4716 18.3152 10.5651 17.5208 10.6702 16.6915L10.6936 16.5045C10.7286 16.2008 10.7636 15.8854 10.8104 15.5817C11.079 13.6193 11.558 11.0961 12.8897 9.0752C14.1512 7.15945 16.102 5.96795 17.9944 5.94459C19.8868 5.96795 21.8493 7.17113 23.1109 9.0752C24.4425 11.0961 24.9215 13.6193 25.1901 15.5817C25.2369 15.8854 25.2719 16.2008 25.307 16.5045L25.342 16.7499C25.4355 17.5091 25.5406 18.3035 25.6691 19.0861C25.7041 19.2964 25.7508 19.5067 25.7976 19.7753C26.0195 20.9201 26.2531 22.0999 25.9261 23.1162C25.599 24.1558 24.6995 25.1604 23.5314 25.8029C22.0595 26.6206 20.3891 26.7958 18.9406 26.8192ZM30.0963 28.0107C29.9094 29.3774 28.8815 29.9849 26.662 30.0549C25.3654 30.1017 24.3257 29.4125 23.3094 27.8238C23.7183 27.6719 24.0687 27.5201 24.3841 27.3449C25.9611 26.4804 27.1409 25.1371 27.6082 23.6536C28.0638 22.2051 27.7834 20.7332 27.5264 19.4366L27.3979 18.7824C27.2577 18.0231 27.1643 17.2405 27.0708 16.4812L27.0475 16.306C27.0124 15.9906 26.9657 15.6752 26.9307 15.3598C26.6386 13.2104 26.113 10.4419 24.5827 8.12901C24.4659 7.9421 24.3257 7.76688 24.1855 7.57998C25.5756 7.69679 26.9073 8.6313 27.5615 10.0097C28.3792 11.7152 28.4259 13.7594 28.4843 15.7336C28.496 16.1074 28.5077 16.4812 28.5193 16.855C28.5427 17.2989 28.5544 17.7311 28.6011 18.1633C28.7413 19.752 29.08 21.3056 29.4071 22.8008L29.6524 23.9339C29.9561 25.3123 30.2715 26.7374 30.0963 28.0107Z" fill="white"/>
</g>
<defs>
<clipPath id="clip0_1259_36597">
<rect width="27.79" height="27.6148" fill="white" transform="translate(4.10498 4.19238)"/>
</clipPath>
</defs>
</svg>
