<svg width="51" height="51" viewBox="0 0 51 51" fill="none" xmlns="http://www.w3.org/2000/svg">
<g filter="url(#filter0_d_1259_36547)">
<path d="M25.8941 5.22266C22.334 5.22266 18.8539 6.27834 15.8938 8.2562C12.9337 10.2341 10.6266 13.0453 9.26422 16.3344C7.90184 19.6234 7.54538 23.2426 8.23992 26.7343C8.93445 30.2259 10.6488 33.4332 13.1661 35.9506C15.6835 38.4679 18.8908 40.1823 22.3824 40.8768C25.8741 41.5713 29.4933 41.2149 32.7824 39.8525C36.0714 38.4901 38.8826 36.183 40.8605 33.2229C42.8384 30.2628 43.894 26.7827 43.894 23.2227C43.894 20.8589 43.4285 18.5182 42.5239 16.3344C41.6193 14.1505 40.2934 12.1662 38.622 10.4947C36.9505 8.82328 34.9662 7.49741 32.7824 6.59282C30.5985 5.68824 28.2578 5.22266 25.8941 5.22266ZM25.8941 32.2227C25.538 32.2227 25.19 32.1171 24.894 31.9193C24.598 31.7215 24.3673 31.4404 24.2311 31.1115C24.0948 30.7826 24.0592 30.4207 24.1286 30.0715C24.1981 29.7223 24.3695 29.4016 24.6213 29.1499C24.873 28.8981 25.1937 28.7267 25.5429 28.6572C25.8921 28.5878 26.254 28.6234 26.5829 28.7597C26.9118 28.8959 27.1929 29.1266 27.3907 29.4226C27.5885 29.7186 27.694 30.0666 27.694 30.4227C27.694 30.9 27.5044 31.3579 27.1668 31.6954C26.8293 32.033 26.3714 32.2227 25.8941 32.2227ZM27.694 25.0227C27.694 25.5 27.5044 25.9579 27.1668 26.2954C26.8293 26.633 26.3714 26.8227 25.8941 26.8227C25.4167 26.8227 24.9588 26.633 24.6213 26.2954C24.2837 25.9579 24.094 25.5 24.094 25.0227V16.0227C24.094 15.5453 24.2837 15.0874 24.6213 14.7499C24.9588 14.4123 25.4167 14.2227 25.8941 14.2227C26.3714 14.2227 26.8293 14.4123 27.1668 14.7499C27.5044 15.0874 27.694 15.5453 27.694 16.0227V25.0227Z" fill="white"/>
</g>
<defs>
<filter id="filter0_d_1259_36547" x="0.894043" y="0.222656" width="50" height="50" filterUnits="userSpaceOnUse" color-interpolation-filters="sRGB">
<feFlood flood-opacity="0" result="BackgroundImageFix"/>
<feColorMatrix in="SourceAlpha" type="matrix" values="0 0 0 0 0 0 0 0 0 0 0 0 0 0 0 0 0 0 127 0" result="hardAlpha"/>
<feOffset dy="2"/>
<feGaussianBlur stdDeviation="3.5"/>
<feComposite in2="hardAlpha" operator="out"/>
<feColorMatrix type="matrix" values="0 0 0 0 0.0392157 0 0 0 0 0.0392157 0 0 0 0 0.0392157 0 0 0 0.07 0"/>
<feBlend mode="normal" in2="BackgroundImageFix" result="effect1_dropShadow_1259_36547"/>
<feBlend mode="normal" in="SourceGraphic" in2="effect1_dropShadow_1259_36547" result="shape"/>
</filter>
</defs>
</svg>
