<svg width="36" height="36" viewBox="0 0 36 36" fill="none" xmlns="http://www.w3.org/2000/svg">
<path d="M18 27.7734C17.8487 27.7743 17.6987 27.7453 17.5586 27.6881C17.4185 27.6308 17.2911 27.5465 17.1836 27.4399L8.2493 18.4941C7.12862 17.3618 6.5 15.8329 6.5 14.2397C6.5 12.6465 7.12862 11.1177 8.2493 9.98529C9.37875 8.85902 10.9087 8.22656 12.5037 8.22656C14.0988 8.22656 15.6287 8.85902 16.7582 9.98529L18 11.2271L19.2418 9.98529C20.3713 8.85902 21.9012 8.22656 23.4963 8.22656C25.0913 8.22656 26.6212 8.85902 27.7507 9.98529C28.8714 11.1177 29.5 12.6465 29.5 14.2397C29.5 15.8329 28.8714 17.3618 27.7507 18.4941L18.8164 27.4399C18.709 27.5465 18.5815 27.6308 18.4414 27.6881C18.3013 27.7453 18.1513 27.7743 18 27.7734ZM12.5037 10.5257C12.017 10.5235 11.5346 10.6179 11.0846 10.8034C10.6346 10.989 10.2259 11.262 9.88209 11.6066C9.18765 12.3047 8.79782 13.2493 8.79782 14.234C8.79782 15.2186 9.18765 16.1633 9.88209 16.8614L18 24.9908L26.1179 16.8614C26.8124 16.1633 27.2022 15.2186 27.2022 14.234C27.2022 13.2493 26.8124 12.3047 26.1179 11.6066C25.4092 10.937 24.4712 10.564 23.4963 10.564C22.5213 10.564 21.5833 10.937 20.8746 11.6066L18.8164 13.6763C18.7095 13.7841 18.5823 13.8696 18.4422 13.928C18.3021 13.9864 18.1518 14.0164 18 14.0164C17.8482 14.0164 17.6979 13.9864 17.5578 13.928C17.4177 13.8696 17.2905 13.7841 17.1836 13.6763L15.1254 11.6066C14.7816 11.262 14.3729 10.989 13.9229 10.8034C13.4728 10.6179 12.9905 10.5235 12.5037 10.5257Z" fill="#DEDEDE"/>
</svg>
