<svg width="31" height="31" viewBox="0 0 31 31" fill="none" xmlns="http://www.w3.org/2000/svg">
<path d="M15.5 24.8485C15.3553 24.8493 15.2118 24.8216 15.0778 24.7668C14.9438 24.7121 14.8219 24.6314 14.7191 24.5295L6.17325 15.9727C5.10129 14.8895 4.5 13.4271 4.5 11.9032C4.5 10.3793 5.10129 8.91691 6.17325 7.83375C7.25359 6.75645 8.71702 6.15149 10.2427 6.15149C11.7684 6.15149 13.2318 6.75645 14.3122 7.83375L15.5 9.02159L16.6878 7.83375C17.7682 6.75645 19.2316 6.15149 20.7573 6.15149C22.283 6.15149 23.7464 6.75645 24.8268 7.83375C25.8987 8.91691 26.5 10.3793 26.5 11.9032C26.5 13.4271 25.8987 14.8895 24.8268 15.9727L16.2809 24.5295C16.1781 24.6314 16.0562 24.7121 15.9222 24.7668C15.7882 24.8216 15.6447 24.8493 15.5 24.8485Z" fill="#FDAAA2"/>
</svg>
