<svg width="38" height="38" viewBox="0 0 38 38" fill="none" xmlns="http://www.w3.org/2000/svg">
<path d="M20.3016 8.39251C18.7433 8.39251 17.2099 8.71404 15.7877 9.30765V7.73707C15.7877 6.48803 14.5016 5.70893 13.4751 6.32726L10.1114 8.36777L6.74761 10.4083C5.68407 11.0514 5.68407 12.5848 6.74761 13.2279L10.1114 15.2684L13.4751 17.3089C14.5016 17.9396 15.7877 17.1482 15.7877 15.8991V13.4258C15.899 13.401 16.0103 13.3516 16.1092 13.2897C17.3706 12.523 18.8175 12.1149 20.3016 12.1149C24.7288 12.1149 28.3399 15.726 28.3399 20.1533C28.3399 24.5806 24.7288 28.1916 20.3016 28.1916C17.9148 28.1916 15.664 27.1405 14.1305 25.3102C13.4751 24.5187 12.3003 24.4198 11.5212 25.0752C10.7297 25.7307 10.6308 26.9055 11.2862 27.6846C13.5246 30.3558 16.8141 31.8893 20.3016 31.8893C26.7817 31.8893 32.05 26.6211 32.05 20.1409C32.05 13.6731 26.7817 8.39251 20.3016 8.39251Z" fill="#262626"/>
</svg>
