<svg width="324" height="323" viewBox="0 0 324 323" fill="none" xmlns="http://www.w3.org/2000/svg">
<path d="M163.373 9.97586C163.373 3.12441 166.79 -0.178569 173.669 0.0222874L197.232 3.34758C204.312 4.24028 208.287 6.89605 209.18 11.3149C209.18 13.9707 206.523 16.6264 201.207 19.2822C200.314 20.5989 199.89 23.9242 199.89 29.2358V52.7807C199.89 58.3154 202.547 61.0604 207.863 61.0604H225.44C230.979 61.0604 233.726 58.4047 233.726 53.0931V9.97586C233.726 2.90123 237.143 -0.424061 244.022 0.0222874L266.579 3.34758C271.448 4.01711 275.423 5.55701 278.528 7.98961C280.515 13.078 278.193 16.8273 271.559 19.2599C270.666 20.3758 270.242 23.4556 270.242 28.5439V52.7583C270.242 58.0699 270.688 60.9488 271.559 61.3729C276.205 60.5025 280.85 55.3025 285.496 45.7953C289.918 34.525 295.792 32.0924 303.095 38.4975C310.398 45.349 315.491 50.9953 318.349 55.4141C322.325 61.8192 324.201 65.814 324 67.3539C323.106 69.117 319.131 70.0097 312.051 70.0097H278.528C272.989 70.0097 270.242 72.6655 270.242 77.977C270.465 89.4705 270.242 100.964 269.572 112.457C266.021 118.863 258.963 121.741 248.332 121.072C236.383 119.978 231.515 113.239 233.726 100.852V78.3118C233.726 72.7771 231.068 70.032 225.752 70.032H208.153C202.614 70.032 199.867 72.6878 199.867 77.9994C200.091 89.4928 199.867 100.986 199.197 112.48C195.646 118.885 188.678 121.764 178.292 121.094C166.567 120.425 161.587 113.685 163.351 100.875V78.3341C163.351 72.7994 160.693 70.0543 155.378 70.0543H149.08C143.764 70.0543 141.553 70.9471 142.446 72.7101C145.104 77.7985 143.005 80.2311 136.148 80.0079C132.82 80.2311 130.386 80.9006 128.845 81.9942C116.896 94.8267 105.394 105.093 94.3388 112.837C87.4823 117.925 87.2589 122.902 93.6688 127.767C110.71 143.01 121.542 160.596 126.187 180.481C130.163 193.961 130.721 215.854 127.84 246.139C126.299 267.363 121.743 285.038 114.238 299.187C104.724 315.1 88.5766 323.067 65.7959 323.067C65.1259 322.174 64.7909 318.425 64.7909 311.797C64.3442 304.052 59.1404 295.996 49.2017 287.582C42.5685 282.494 39.2407 279.302 39.2407 277.963C40.1118 276.424 43.8862 275.977 50.5194 276.647C57.1526 278.41 64.3442 278.968 72.0941 278.298C82.4794 275.196 88.0183 267.787 88.6883 256.092C89.7827 252.12 90.4527 248.125 90.676 244.153C91.1227 238.841 88.0183 237.859 81.3851 241.162C59.0287 252.209 38.0124 259.73 18.3361 263.703C11.4795 265.689 6.49902 266.024 3.39458 264.707C3.17124 263.591 3.28291 262.497 3.72959 261.382C36.6946 245.916 66.1086 222.594 91.9937 191.416L92.3288 183.137C91.6587 178.495 88.0183 178.272 81.3851 182.467C62.1331 195.724 41.1168 205.008 18.3361 210.319C9.71512 211.636 5.49398 211.636 5.71732 210.319C5.94067 209.226 9.80446 206.124 17.331 201.035C36.3596 188.872 55.4999 170.527 74.7295 146.001C78.9283 140.265 79.9334 135.623 77.7223 132.074C75.2879 128.548 70.5307 128.437 63.4508 131.74C47.3033 139.707 30.3741 145.889 12.6855 150.308C3.39458 150.977 -0.804216 150.643 0.0668116 149.303C3.39458 146.871 7.59338 144.438 12.6855 142.006C49.4027 122.768 79.5984 94.3803 103.272 56.7978C107.471 49.9464 112.898 48.7412 119.532 53.1601C126.165 59.7883 132.039 62.4441 137.131 61.1274H155.043C160.559 61.1274 163.329 58.4716 163.329 53.1601V9.97586H163.373ZM56.8623 7.65484C61.9544 0.803397 68.6993 -0.624918 77.0969 3.34758C89.7157 9.75268 97.0189 16.1801 99.0066 22.5852C98.56 25.4641 96.9072 26.6693 94.0261 26.2229C91.145 26.2229 88.3756 27.004 85.7402 28.5439L79.107 32.5164C72.6971 36.7121 72.9205 41.0194 79.777 45.4382C84.8692 50.0803 87.3036 55.7266 87.0803 62.3548C85.3159 74.9642 78.7943 80.0526 67.4933 77.5976C58.8723 75.3882 54.3385 68.7599 53.8919 57.7128C51.4574 52.4013 47.5937 51.0845 42.2782 53.7403C27.024 60.3686 14.4053 64.475 4.44428 66.0149C3.12658 65.3454 2.56822 64.5866 2.79156 63.6939C26.4433 45.349 44.4669 26.6693 56.8623 7.65484ZM17.7107 80.2757C15.2763 74.5402 17.4874 71.8844 24.3439 72.3084C34.5059 74.5178 42.4792 78.6019 48.2413 84.583C54.6512 93.867 54.0929 102.705 46.5886 111.118C40.6254 115.984 33.4339 115.649 25.0139 110.114C21.4628 107.235 19.8101 102.705 20.0334 96.5228C20.0334 90.3409 19.2518 84.9178 17.7107 80.2757ZM272.877 142.631C278.617 134.663 281.945 130.691 282.838 130.691C295.01 133.347 307.272 139.194 319.667 148.255C324.089 153.343 322.861 157.204 316.027 159.86C312.475 162.515 310.711 166.488 310.711 171.799V296.152C312.699 311.618 304.949 319.585 287.484 320.032C277.076 319.585 272.542 314.385 273.882 304.454C273.882 300.259 271.224 298.161 265.909 298.161H180.973C175.657 298.161 172.776 300.147 172.352 304.119C169.694 313.85 164.49 318.715 156.762 318.715C141.285 322.464 134.317 316.171 135.858 299.812V144.282C135.858 137.431 140.28 135.221 149.124 137.654C155.757 139.64 162.391 142.407 169.024 145.934C171.235 147.049 174.987 147.585 180.303 147.585H258.941C265.373 148.924 270.018 147.273 272.877 142.631ZM204.848 164.836C204.848 159.101 202.302 156.222 197.209 156.222H180.95C175.411 156.222 172.664 158.878 172.664 164.189V209.293C172.664 214.827 175.322 217.572 180.638 217.572H196.562C202.078 217.572 204.848 214.917 204.848 209.605V164.836ZM204.848 234.802C204.848 229.267 202.19 226.522 196.874 226.522H180.95C175.411 226.522 172.664 229.178 172.664 234.489V281.244C172.664 286.756 175.322 289.524 180.638 289.524H196.562C202.078 289.524 204.848 286.868 204.848 281.557V234.802ZM272.877 156.869C272.43 156.423 269.326 156.2 263.586 156.2H249.65C244.111 156.2 241.364 158.855 241.364 164.167V209.27C241.364 214.805 244.022 217.55 249.337 217.55H265.596C271.113 217.55 273.882 214.894 273.882 209.583V165.841C273.882 160.529 273.547 157.539 272.877 156.869ZM273.882 234.802C273.882 229.267 271.224 226.522 265.909 226.522H249.65C244.111 226.522 241.364 229.178 241.364 234.489V281.244C241.364 286.756 244.022 289.524 249.337 289.524H265.596C271.113 289.524 273.882 286.868 273.882 281.557V234.802Z" fill="white"/>
</svg>
