<svg width="342" height="348" viewBox="0 0 342 348" fill="none" xmlns="http://www.w3.org/2000/svg">
<path d="M164.311 0.622776C165.246 -0.311356 169.178 -0.215547 176.058 0.982058C189.843 4.07188 203.268 9.17368 216.333 16.2874C219.425 21.7485 217.268 25.2934 209.932 26.9701C207.799 26.7306 205.665 27.5689 203.531 29.4611L187.853 62.5629C185.24 68.503 186.774 71.4491 192.48 71.4491H269.05C275.451 73.3413 280.437 71.5689 284.009 66.1078C291.369 54.012 297.889 49.9641 303.595 54.012C313.088 58.994 322.582 64.8144 332.099 71.4491C337.565 74.2994 340.753 77.7485 341.712 81.7725C342.887 86.994 340.394 90.4431 334.233 92.0958C329.726 93.7485 327.113 98.8503 326.393 107.401V155.808C325.674 178.587 324.5 201.365 322.821 224.144C320.448 258.299 314.742 286.779 305.729 309.557C298.369 330.443 282.091 343.234 256.919 348C248.121 348.479 243.255 344.91 242.32 337.317C239.707 322.85 229.015 310.85 210.268 301.365C208.614 299.234 208.949 297.102 211.347 294.97C214.679 294.252 219.066 294.491 224.532 295.689C235.919 297.102 246.491 297.701 256.224 297.461C260.971 296.048 263.824 294.97 264.783 294.252C270.009 288.551 273.437 279.665 275.115 267.569C281.036 229.844 284.608 185.964 285.807 135.904V93.1497C284.848 85.0779 281.66 81.0539 276.194 81.0539H188.548C181.668 81.7725 175.962 85.9162 171.455 93.509L155.417 117.006C151.366 122.467 153.284 126.132 161.123 128.048C167.284 129.701 173.469 132.192 179.654 135.521C185.36 138.371 191.401 139.784 197.826 139.784C205.185 139.784 211.227 137.653 215.997 133.389C220.744 128.886 226.689 127.808 233.809 130.18C243.542 134.683 251.861 139.305 258.741 144.048C265.861 149.509 265.382 154.132 257.327 157.916C254.474 160.766 253.06 165.03 253.06 170.731V244.048C256.392 257.341 250.207 264.934 234.529 266.826C221.223 270.395 214.703 264.934 214.943 250.467C214.943 244.767 212.09 241.916 206.384 241.916H193.559C187.613 241.916 184.665 244.767 184.665 250.467C184.904 255.928 184.665 261.389 183.945 266.826C178.24 275.856 169.226 279.761 156.88 278.563C148.082 276.91 144.653 270.97 146.547 260.767V138.707C146.547 133.006 142.975 133.126 135.855 139.066L126.602 147.617C121.136 153.078 119.122 159.353 120.537 166.467C128.376 217.964 125.403 262.922 111.643 301.341C98.0977 329.341 77.4569 344.168 49.6721 345.82C42.5521 345.82 38.5006 345.341 37.5657 344.407C37.0862 343.21 36.8465 340.264 36.8465 335.521C35.6478 325.796 29.3669 316.647 17.9797 308.12C11.0994 302.659 7.76715 299.329 8.00688 298.156C9.18156 296.503 13.3529 296.024 20.4729 296.743C35.6718 299.114 48.6173 297.82 59.2853 292.838C67.3642 288.79 72.6863 282.515 75.3233 273.964C81.0289 256.168 83.9776 232.335 84.2173 202.443C84.2173 196.287 81.3645 197.222 75.6589 205.293C54.7544 231.162 32.4354 250.012 8.7021 261.868C5.36984 264.479 2.51704 265.317 0.143709 264.359C-0.575483 263.186 1.91772 258.898 7.62331 251.545C39.9151 215.952 63.1929 177.988 77.4329 137.677C79.5665 134.347 79.3268 129.605 76.7137 123.449L73.1417 111.353C71.0081 105.437 66.3813 105.892 59.2613 112.767C42.8877 127.713 28.5039 138.395 16.1577 144.79C8.0788 148.575 4.17119 149.533 4.41092 147.641C4.65065 146.228 8.31853 141.94 15.4625 134.826C29.7025 119.88 41.5692 104.455 51.0865 88.5509C55.8332 81.4372 56.0729 74.3234 51.8057 67.1857C43.9665 55.5689 33.3944 43.9282 20.1133 32.3114C13.9282 26.3952 10.8597 22.5868 10.8597 20.9342C11.3391 18.0839 16.2057 19.0419 25.4593 23.7845C38.7643 33.2695 49.792 41.9401 58.5901 49.7725C64.7512 55.9521 69.1622 55.3533 71.7753 48C75.8028 37.5569 79.3747 26.994 82.4673 16.3354C84.8406 6.85032 86.6146 1.98805 87.8133 1.74852C96.8271 3.40122 108.358 6.6108 122.358 11.3533C127.824 12.5509 131.013 15.2575 131.972 19.5449C131.252 23.1138 129.239 24.8863 125.906 24.8863C123.773 24.8863 120.92 27.6168 117.348 33.0779C111.882 45.4132 104.043 58.8264 93.8305 73.2934C89.3236 79.6887 88.7242 85.2695 92.0565 90.012C101.79 105.916 108.67 120.982 112.721 135.21C114.615 141.15 118.067 140.311 123.054 132.719C143.431 96.5988 157.191 52.5988 164.311 0.622776ZM214.895 158.994C214.895 152.599 211.802 149.389 205.641 149.389H193.535C187.589 149.389 184.641 152.24 184.641 157.94V223.425C184.641 229.365 187.493 232.311 193.199 232.311H206.025C211.946 232.311 214.919 229.461 214.919 223.761V158.994H214.895Z" fill="white"/>
</svg>
