<svg width="56" height="56" viewBox="0 0 56 56" fill="none" xmlns="http://www.w3.org/2000/svg">
<path d="M28 0C22.4621 0 17.0486 1.64217 12.444 4.71885C7.83947 7.79553 4.25064 12.1685 2.13139 17.2849C0.012132 22.4012 -0.542361 28.0311 0.538025 33.4625C1.61841 38.894 4.28515 43.8831 8.20102 47.799C12.1169 51.7148 17.106 54.3816 22.5375 55.462C27.9689 56.5424 33.5988 55.9879 38.7151 53.8686C43.8315 51.7494 48.2045 48.1605 51.2811 43.556C54.3578 38.9514 56 33.5379 56 28C56 24.323 55.2758 20.682 53.8686 17.2849C52.4615 13.8877 50.399 10.801 47.799 8.20101C45.199 5.60097 42.1123 3.5385 38.7151 2.13137C35.318 0.724241 31.677 0 28 0ZM36.4 30.8H30.8V36.4C30.8 37.1426 30.505 37.8548 29.9799 38.3799C29.4548 38.905 28.7426 39.2 28 39.2C27.2574 39.2 26.5452 38.905 26.0201 38.3799C25.495 37.8548 25.2 37.1426 25.2 36.4V30.8H19.6C18.8574 30.8 18.1452 30.505 17.6201 29.9799C17.095 29.4548 16.8 28.7426 16.8 28C16.8 27.2574 17.095 26.5452 17.6201 26.0201C18.1452 25.495 18.8574 25.2 19.6 25.2H25.2V19.6C25.2 18.8574 25.495 18.1452 26.0201 17.6201C26.5452 17.095 27.2574 16.8 28 16.8C28.7426 16.8 29.4548 17.095 29.9799 17.6201C30.505 18.1452 30.8 18.8574 30.8 19.6V25.2H36.4C37.1426 25.2 37.8548 25.495 38.3799 26.0201C38.905 26.5452 39.2 27.2574 39.2 28C39.2 28.7426 38.905 29.4548 38.3799 29.9799C37.8548 30.505 37.1426 30.8 36.4 30.8Z" fill="#FDAAA2"/>
</svg>
