<svg width="25" height="24" viewBox="0 0 25 24" fill="none" xmlns="http://www.w3.org/2000/svg">
<path d="M15.3466 22.0025C15.1332 22.0032 14.9223 21.9561 14.7294 21.8646C14.5365 21.7731 14.3666 21.6396 14.2321 21.4738L7.3309 12.9008C7.12075 12.6452 7.00586 12.3245 7.00586 11.9935C7.00586 11.6626 7.12075 11.3419 7.3309 11.0862L14.475 2.51324C14.7176 2.22145 15.0661 2.03795 15.4439 2.00312C15.8217 1.96828 16.1979 2.08496 16.4897 2.32749C16.7815 2.57002 16.965 2.91853 16.9998 3.29634C17.0346 3.67416 16.918 4.05035 16.6754 4.34214L10.2886 12.0007L16.4611 19.6592C16.6358 19.8689 16.7468 20.1243 16.7809 20.3951C16.8151 20.666 16.7709 20.9409 16.6536 21.1874C16.5364 21.4339 16.351 21.6417 16.1194 21.7861C15.8877 21.9306 15.6196 22.0056 15.3466 22.0025Z" fill="#262626"/>
</svg>
