<svg width="24" height="24" viewBox="0 0 24 24" fill="none" xmlns="http://www.w3.org/2000/svg">
<path d="M8.65923 1.99729C8.87269 1.99657 9.0836 2.04368 9.27646 2.13517C9.46932 2.22665 9.63924 2.36019 9.77372 2.52596L16.675 11.0989C16.8851 11.3546 17 11.6753 17 12.0062C17 12.3372 16.8851 12.6579 16.675 12.9135L9.53082 21.4865C9.28829 21.7783 8.93978 21.9618 8.56196 21.9966C8.18414 22.0315 7.80796 21.9148 7.51617 21.6723C7.22438 21.4297 7.04088 21.0812 7.00605 20.7034C6.97121 20.3256 7.08789 19.9494 7.33042 19.6576L13.7173 11.9991L7.54475 4.34057C7.37002 4.13084 7.25904 3.87545 7.22492 3.60462C7.1908 3.33379 7.23497 3.05885 7.35222 2.81233C7.46946 2.56582 7.65486 2.35805 7.88649 2.21361C8.11812 2.06917 8.38628 1.99411 8.65923 1.99729Z" fill="#262626"/>
</svg>
