<svg width="36" height="36" viewBox="0 0 36 36" fill="none" xmlns="http://www.w3.org/2000/svg">
<path fill-rule="evenodd" clip-rule="evenodd" d="M29.209 10.3243C29.9868 10.5159 30.4627 11.3052 30.2653 12.0829L26.7134 26.2328C26.5508 26.8771 25.9763 27.3298 25.3088 27.3298C25.1927 27.3298 25.0709 27.3123 24.9548 27.2833L15.4712 24.9037C15.094 24.8109 14.7747 24.5729 14.5774 24.2421C14.3801 23.9113 14.322 23.5224 14.4149 23.1452L17.9669 8.99525C18.1294 8.35102 18.704 7.89832 19.3714 7.89832C19.4875 7.89832 19.6094 7.91573 19.7255 7.94475L29.209 10.3243ZM12.5251 22.9362C12.2175 24.1782 12.972 25.4377 14.214 25.7511L16.6168 26.3489L12.0608 28.0146C11.8983 28.0726 11.7299 28.1016 11.5616 28.1016C10.9522 28.1016 10.4067 27.7186 10.1977 27.1498L5.78095 15.0777C5.64746 14.7121 5.65907 14.3174 5.82738 13.9692C5.99569 13.6209 6.28589 13.3539 6.64573 13.2205L14.6029 10.3069C14.7654 10.2489 14.9337 10.2198 15.102 10.2198C15.3051 10.2198 15.5025 10.2663 15.6824 10.3475L12.5251 22.9362Z" fill="#DEDEDE"/>
</svg>
