<svg fill="none" height="25" viewBox="0 0 25 25" width="25" xmlns="http://www.w3.org/2000/svg"><path d="m13.439 12.4995 2.1515-2.1465c.0942-.0942.1472-.222.1472-.35524 0-.13325-.053-.26103-.1472-.35525s-.222-.14715-.3552-.14715c-.1333 0-.2611.05293-.3553.14715l-2.1465 2.15149-2.1465-2.15149c-.0942-.09422-.222-.14715-.3552-.14715-.1333 0-.26106.05293-.35528.14715s-.14715.222-.14715.35525c0 .13324.05293.26104.14715.35524l2.15148 2.1465-2.15148 2.1465c-.0469.0465-.08412.1019-.10952.1628-.02541.061-.03848.1264-.03848.1925 0 .066.01307.1314.03848.1924.0254.061.06262.1163.10952.1628.04651.0469.10185.0841.16278.1095.061.0254.1264.0385.1925.0385.066 0 .1314-.0131.1924-.0385s.1163-.0626.1628-.1095l2.1465-2.1515 2.1465 2.1515c.0465.0469.1019.0841.1628.1095.061.0254.1264.0385.1925.0385.066 0 .1314-.0131.1924-.0385s.1163-.0626.1628-.1095c.0469-.0465.0841-.1018.1095-.1628s.0385-.1264.0385-.1924c0-.0661-.0131-.1315-.0385-.1925-.0254-.0609-.0626-.1163-.1095-.1628z" fill="#262626"/></svg>