<svg width="44" height="44" viewBox="0 0 44 44" fill="none" xmlns="http://www.w3.org/2000/svg">
<path d="M24.2315 21.9986L31.0369 15.2091C31.3349 14.9111 31.5023 14.5069 31.5023 14.0855C31.5023 13.664 31.3349 13.2598 31.0369 12.9618C30.7388 12.6638 30.3346 12.4963 29.9132 12.4963C29.4917 12.4963 29.0875 12.6638 28.7895 12.9618L22 19.7671L15.2105 12.9618C14.9125 12.6638 14.5083 12.4963 14.0868 12.4963C13.6654 12.4963 13.2612 12.6638 12.9631 12.9618C12.6651 13.2598 12.4977 13.664 12.4977 14.0855C12.4977 14.5069 12.6651 14.9111 12.9631 15.2091L19.7685 21.9986L12.9631 28.7881C12.8148 28.9353 12.6971 29.1103 12.6167 29.3032C12.5364 29.496 12.495 29.7029 12.495 29.9118C12.495 30.1207 12.5364 30.3276 12.6167 30.5205C12.6971 30.7133 12.8148 30.8884 12.9631 31.0355C13.1103 31.1838 13.2853 31.3016 13.4782 31.3819C13.671 31.4623 13.8779 31.5036 14.0868 31.5036C14.2957 31.5036 14.5026 31.4623 14.6955 31.3819C14.8883 31.3016 15.0634 31.1838 15.2105 31.0355L22 24.2302L28.7895 31.0355C28.9366 31.1838 29.1117 31.3016 29.3045 31.3819C29.4974 31.4623 29.7043 31.5036 29.9132 31.5036C30.1221 31.5036 30.329 31.4623 30.5218 31.3819C30.7147 31.3016 30.8897 31.1838 31.0369 31.0355C31.1852 30.8884 31.3029 30.7133 31.3833 30.5205C31.4636 30.3276 31.505 30.1207 31.505 29.9118C31.505 29.7029 31.4636 29.496 31.3833 29.3032C31.3029 29.1103 31.1852 28.9353 31.0369 28.7881L24.2315 21.9986Z" fill="#262626"/>
</svg>
