<svg width="36" height="36" viewBox="0 0 36 36" fill="none" xmlns="http://www.w3.org/2000/svg">
<path fill-rule="evenodd" clip-rule="evenodd" d="M7.86714 18.0067C7.22218 18.046 6.57405 18.0781 5.93203 18.0712C5.65691 18.0676 5.37916 17.9861 5.12816 17.8928C4.65868 17.7214 4.51973 17.4093 4.71348 16.947C4.82628 16.6724 4.98685 16.4043 5.175 16.1645C5.90342 15.2376 6.83731 14.5034 7.80176 13.809C9.88321 12.3117 12.1432 11.1196 14.5554 10.0243C17.1104 8.91874 19.7852 7.9287 22.6043 7.445C23.389 7.31087 24.1883 7.27249 24.981 7.23442L25.0582 7.23071C25.3788 7.21623 25.7094 7.28697 26.0121 7.37656C26.597 7.54783 26.7766 7.90806 26.4999 8.44798C26.292 8.85465 26.0074 9.23778 25.7056 9.59655C25.4765 9.86946 25.2048 10.1119 24.9337 10.3539C24.876 10.4054 24.8183 10.4568 24.7611 10.5086C24.6727 10.5885 24.5424 10.6508 24.4242 10.6735C20.9365 11.316 17.6377 12.5411 14.4425 14.0855C12.2727 15.1349 10.227 16.3812 8.3136 17.8336C8.19236 17.926 8.01699 17.9977 7.86714 18.0067ZM27.1663 9.10027L27.3736 9.56574C27.466 9.77321 27.5574 9.98145 27.6489 10.1898C27.8712 10.696 28.0937 11.2026 28.3302 11.6999C28.4915 12.0383 28.4588 12.3584 28.2823 12.6914C27.9216 13.3691 27.3715 13.9046 26.7928 14.4144C25.4572 15.5903 23.982 16.5869 22.4046 17.426C22.042 17.6195 21.6786 17.8112 21.3136 17.9993C22.3448 18.3907 23.2253 19.1782 23.7097 20.2661C24.6744 22.4329 23.6999 24.9717 21.5331 25.9364C19.3662 26.9011 16.8275 25.9266 15.8627 23.7598C15.3871 22.6915 15.3848 21.5344 15.7615 20.5183C13.8346 21.2394 11.8574 21.7949 9.81456 22.0783C9.0856 22.1785 8.34032 22.1748 7.60791 22.1569C6.9863 22.143 6.54847 21.87 6.32608 21.2745C6.11607 20.709 5.86276 20.1608 5.60475 19.6024C5.49294 19.3604 5.38025 19.1165 5.26982 18.8685C7.39721 19.1351 9.42719 18.6501 11.4508 18.0932C13.8444 17.4314 16.147 16.5173 18.3837 15.436C20.8544 14.2419 23.2282 12.8923 25.3259 11.1292C26.0224 10.5434 26.6541 9.90317 27.1663 9.10027ZM19.7575 23.6284C19.9108 23.9726 20.3154 24.1279 20.6596 23.9747C21.0038 23.8214 21.1592 23.4168 21.0059 23.0726C20.8527 22.7284 20.448 22.573 20.1038 22.7263C19.7596 22.8795 19.6043 23.2842 19.7575 23.6284ZM19.9909 22.4774C21.1537 21.9597 22.1177 21.0005 22.6085 19.7221L21.6961 19.3719C20.9075 21.4261 18.5962 22.4551 16.542 21.6666L16.1918 22.579C17.4702 23.0697 18.8281 22.9951 19.9909 22.4774Z" fill="#DEDEDE"/>
</svg>
