<svg width="36" height="36" viewBox="0 0 36 36" fill="none" xmlns="http://www.w3.org/2000/svg">
<path fill-rule="evenodd" clip-rule="evenodd" d="M26.728 10.0484C25.5758 8.90433 24.2068 8.00194 22.7011 7.39415C21.1955 6.78637 19.5836 6.48545 17.9601 6.50904C14.9124 6.50142 11.9865 7.70481 9.82604 9.85447C7.6656 12.0041 6.4476 14.924 6.43998 17.9717C6.43236 21.0194 7.63575 23.9453 9.78541 26.1057C11.9351 28.2662 14.8549 29.4842 17.9026 29.4918C18.5594 29.503 19.2012 29.2958 19.7274 28.9027C20.2536 28.5096 20.6344 27.9529 20.8099 27.3199C20.9219 26.8629 20.9207 26.3854 20.8066 25.9289C20.6924 25.4724 20.4688 25.0505 20.1549 24.6999C20.0824 24.6173 20.035 24.5156 20.0185 24.407C20.002 24.2983 20.017 24.1871 20.0618 24.0867C20.1065 23.9863 20.1792 23.9008 20.271 23.8405C20.3629 23.7801 20.4702 23.7474 20.5801 23.7461H22.4762C24.2607 23.7545 25.9824 23.0874 27.2954 21.8788C28.6084 20.6702 29.4156 19.0096 29.5549 17.2305C29.5976 15.904 29.3689 14.5826 28.8828 13.3476C28.3967 12.1126 27.6635 10.9899 26.728 10.0484ZM22.5222 21.4478H20.6261C20.0723 21.4447 19.5296 21.6023 19.0637 21.9015C18.5977 22.2008 18.2286 22.6288 18.0011 23.1336C17.7737 23.6385 17.6975 24.1985 17.782 24.7458C17.8665 25.2931 18.108 25.804 18.4772 26.2168C18.5491 26.2893 18.5999 26.38 18.6242 26.4792C18.6485 26.5784 18.6453 26.6823 18.6151 26.7798C18.5576 27.0212 18.2933 27.1706 17.9371 27.1935C16.6321 27.1768 15.3455 26.8824 14.1631 26.3299C12.9807 25.7773 11.9294 24.9794 11.0793 23.989C10.2292 22.9987 9.59974 21.8387 9.23274 20.5862C8.86574 19.3337 8.76965 18.0174 8.95084 16.7249C9.27854 14.5529 10.3638 12.5669 12.0146 11.1179C13.6654 9.66898 15.7755 8.85053 17.9716 8.80732H18.0635C19.363 8.7903 20.6527 9.0337 21.8567 9.52316C23.0606 10.0126 24.1543 10.7382 25.0732 11.6572C25.7903 12.3747 26.3537 13.2308 26.7291 14.1732C27.1045 15.1156 27.284 16.1245 27.2566 17.1386C27.1376 18.3142 26.5885 19.4044 25.7146 20.1998C24.8407 20.9952 23.7038 21.4397 22.5222 21.4478ZM18.0632 13.4039C19.0151 13.4039 19.7869 12.6322 19.7869 11.6802C19.7869 10.7282 19.0151 9.95647 18.0632 9.95647C17.1112 9.95647 16.3395 10.7282 16.3395 11.6802C16.3395 12.6322 17.1112 13.4039 18.0632 13.4039ZM21.1145 13.2148C21.2652 12.9091 21.5032 12.655 21.7983 12.4845C21.9945 12.3712 22.211 12.2977 22.4356 12.2681C22.6602 12.2385 22.8884 12.2535 23.1072 12.3122C23.326 12.3709 23.531 12.4722 23.7107 12.6102C23.8903 12.7482 24.041 12.9202 24.154 13.1165C24.3242 13.4118 24.403 13.751 24.3804 14.0911C24.3579 14.4312 24.235 14.7569 24.0274 15.0272C23.8197 15.2975 23.5366 15.5001 23.2138 15.6095C22.891 15.719 22.543 15.7302 22.2139 15.6419C21.8847 15.5536 21.589 15.3696 21.3644 15.1133C21.1397 14.8571 20.996 14.5399 20.9515 14.202C20.9071 13.8641 20.9638 13.5205 21.1145 13.2148ZM14.3289 12.4846C14.0335 12.3144 13.6944 12.2356 13.3543 12.2582C13.0142 12.2807 12.6884 12.4036 12.4182 12.6112C12.1479 12.8189 11.9452 13.102 11.8358 13.4248C11.7264 13.7476 11.7152 14.0956 11.8035 14.4247C11.8918 14.7539 12.0757 15.0496 12.332 15.2742C12.5883 15.4989 12.9055 15.6426 13.2434 15.6871C13.5813 15.7315 13.9248 15.6748 14.2305 15.5241C14.5362 15.3734 14.7904 15.1354 14.9609 14.8403C15.0742 14.6441 15.1477 14.4276 15.1773 14.203C15.2068 13.9784 15.1918 13.7502 15.1331 13.5314C15.0744 13.3126 14.9732 13.1076 14.8352 12.9279C14.6972 12.7483 14.5251 12.5976 14.3289 12.4846ZM10.7218 17.9273C10.8507 17.6115 11.0704 17.341 11.3531 17.1501C11.5399 17.0222 11.7501 16.9325 11.9717 16.8864C12.1933 16.8402 12.4219 16.8385 12.6441 16.8812C12.8664 16.924 13.078 17.0104 13.2667 17.1354C13.4554 17.2605 13.6174 17.4217 13.7433 17.6097C13.9351 17.8919 14.0388 18.2246 14.0414 18.5657C14.0439 18.9068 13.9452 19.241 13.7577 19.526C13.5702 19.811 13.3024 20.034 12.9881 20.1666C12.6738 20.2993 12.3272 20.3357 11.9922 20.2713C11.6572 20.2069 11.3488 20.0445 11.1062 19.8047C10.8635 19.565 10.6975 19.2586 10.629 18.9244C10.5606 18.5902 10.5929 18.2432 10.7218 17.9273Z" fill="#DEDEDE"/>
</svg>
