<svg width="24" height="24" viewBox="0 0 24 24" fill="none" xmlns="http://www.w3.org/2000/svg">
<path fill-rule="evenodd" clip-rule="evenodd" d="M4.23065 18.7157H4.12943C3.98141 18.7166 3.83468 18.6882 3.69765 18.6322C3.56062 18.5762 3.43598 18.4938 3.33089 18.3895C3.2137 18.2728 3.12371 18.1316 3.06733 17.9761C3.01095 17.8206 2.98958 17.6545 3.00473 17.4898L3.48835 12.7998C3.53953 12.286 3.76589 11.8055 4.12943 11.4389L14.2518 1.31653C14.6733 0.960416 15.211 0.771663 15.7626 0.78618C16.3142 0.800696 16.8413 1.01747 17.2435 1.39526L20.3252 4.47695C20.7389 4.87117 20.9796 5.41334 20.9943 5.98466C21.0091 6.55597 20.7968 7.10984 20.4039 7.5249L10.2816 17.6472C9.91495 18.0108 9.43443 18.2371 8.92067 18.2883L4.23065 18.7157ZM18.7506 6.04029L15.6801 2.96985L13.487 5.21925L16.5012 8.23346L18.7506 6.04029ZM4.12942 20.9651H19.8753C20.1736 20.9651 20.4596 21.0836 20.6706 21.2946C20.8815 21.5055 21 21.7915 21 22.0898C21 22.3881 20.8815 22.6742 20.6706 22.8851C20.4596 23.096 20.1736 23.2145 19.8753 23.2145H4.12942C3.83113 23.2145 3.54506 23.096 3.33414 22.8851C3.12321 22.6742 3.00472 22.3881 3.00472 22.0898C3.00472 21.7915 3.12321 21.5055 3.33414 21.2946C3.54506 21.0836 3.83113 20.9651 4.12942 20.9651Z" fill="#FDAAA2"/>
</svg>
