<svg width="24" height="24" viewBox="0 0 24 24" fill="none" xmlns="http://www.w3.org/2000/svg">
<path d="M19.8504 9.09536C19.8504 4.75731 16.3381 1.245 12 1.245C7.66197 1.245 4.14966 4.75731 4.14966 9.09536C4.14966 13.1601 7.24328 16.5038 11.2034 16.905V18.8705H9.55187C9.27856 18.8705 9.05759 19.0915 9.05759 19.3648V20.1208C9.05759 20.3941 9.27856 20.615 9.55187 20.615H11.2034V22.2142C11.2034 22.5166 11.4243 22.755 11.6976 22.755H12.4536C12.7269 22.755 12.9479 22.5108 12.9479 22.2142V20.615H14.5994C14.8727 20.615 15.0936 20.3941 15.0936 20.1208V19.3648C15.0936 19.0915 14.8727 18.8705 14.5994 18.8705H12.9479L12.9479 16.8818C16.8324 16.4166 19.8504 13.1078 19.8504 9.09536ZM6.47569 9.09536C6.47569 6.04826 8.95292 3.57103 12 3.57103C15.0471 3.57103 17.5244 6.04826 17.5244 9.09536C17.5244 12.1425 15.0471 14.6197 12 14.6197C8.95292 14.6197 6.47569 12.1425 6.47569 9.09536Z" fill="#FDAAA2"/>
</svg>
