<svg width="38" height="38" viewBox="0 0 38 38" fill="none" xmlns="http://www.w3.org/2000/svg">
<path fill-rule="evenodd" clip-rule="evenodd" d="M18.1032 15.3509H7.68722C6.90085 15.3509 6.28003 14.7163 6.28003 13.9437C6.28003 13.1712 6.90085 12.5365 7.68722 12.5503H18.0894V11.2121C18.0894 10.4258 18.724 9.80493 19.4966 9.80493C20.2692 9.80493 20.9038 10.4258 20.9038 11.2121V16.6753C20.9038 17.4617 20.2692 18.0825 19.4966 18.0825C18.724 18.0825 18.0894 17.4617 18.1032 16.6891V15.3509ZM23.9391 12.5365H30.3128C31.0854 12.5365 31.72 13.1711 31.72 13.9437C31.72 14.73 31.0854 15.3508 30.3128 15.3508H23.9391C23.1527 15.3508 22.5319 14.7162 22.5319 13.9437C22.5319 13.1573 23.1665 12.5365 23.9391 12.5365ZM30.3128 22.6491H25.3048V21.3109C25.3048 20.5383 24.684 19.9037 23.8976 19.9037C23.125 19.9037 22.4904 20.5245 22.4904 21.3109V26.7879C22.4904 27.5604 23.1112 28.1951 23.8976 28.1951C24.6702 28.1951 25.3048 27.5742 25.3048 26.7879V25.4497H30.3128C31.0853 25.4497 31.72 24.8288 31.72 24.0425C31.72 23.2699 31.0853 22.6491 30.3128 22.6491ZM7.68722 22.649H19.5242C20.3106 22.649 20.9314 23.2698 20.9314 24.0424C20.9314 24.8288 20.2968 25.4496 19.5242 25.4496H7.68722C6.90085 25.4496 6.28003 24.815 6.28003 24.0424C6.28003 23.2698 6.90085 22.649 7.68722 22.649Z" fill="#262626"/>
</svg>
