<svg width="29" height="28" viewBox="0 0 29 28" fill="none" xmlns="http://www.w3.org/2000/svg">
<path d="M26.6398 16.6866C27.3378 13.403 28.6102 11.6144 28.6102 11.6144C27.5113 11.3808 24.8093 14.1694 23.9559 15.0867L21.265 14.5147C21.4946 14.1187 21.8057 13.7705 22.1803 13.5022C22.2538 13.4495 22.3306 13.3992 22.4085 13.3527L21.7205 12.1995C21.6104 12.2653 21.5018 12.3363 21.3982 12.4106C20.7505 12.8745 20.2369 13.5066 19.9049 14.2255L17.6222 13.7403C17.9544 13.0204 18.4686 12.3874 19.1168 11.9231C19.2205 11.8488 19.3291 11.7778 19.4394 11.7119L18.7518 10.5586C18.6092 10.6436 18.4688 10.7355 18.3348 10.8315C17.415 11.4903 16.7038 12.4113 16.284 13.4558L13.9996 12.9702C14.4203 11.9226 15.1333 10.9987 16.0558 10.338C16.1896 10.242 16.3302 10.1499 16.4737 10.0643L15.7858 8.91115C15.6099 9.01606 15.4374 9.12903 15.2735 9.24657C14.0801 10.1013 13.1709 11.3148 12.6693 12.6875L10.5667 12.2406C10.8554 10.8823 11.1245 9.61637 11.3344 8.62859C4.1105 7.0931 0.506473 11.1318 0.506473 11.1318C0.506473 11.1318 2.15623 16.2872 9.38018 17.8227C9.61871 16.7005 9.88372 15.4537 10.1479 14.2107L12.2483 14.6572C12.133 16.3189 12.5968 18.0061 13.5617 19.375L14.6593 18.6015C13.9082 17.5359 13.5307 16.2342 13.579 14.94L15.8636 15.4256C15.816 16.7165 16.1927 18.0142 16.9413 19.0764L18.0388 18.3028C17.5043 17.5444 17.215 16.6311 17.202 15.7101L19.4851 16.1954C19.4982 17.1154 19.7871 18.0276 20.3208 18.785L21.4184 18.0115C21.0999 17.5595 20.9049 17.0297 20.8457 16.4846L23.5372 17.0567C23.9437 18.2418 25.2779 21.8883 26.3768 22.1218C26.3768 22.1218 25.9419 19.9702 26.6398 16.6866ZM5.1035 12.1091C4.74079 12.032 4.50927 11.6754 4.58637 11.3127C4.66347 10.95 5.01998 10.7185 5.38268 10.7956C5.74533 10.8727 5.97691 11.2292 5.89982 11.5919C5.82272 11.9546 5.46614 12.1861 5.1035 12.1091Z" fill="#FDAAA2"/>
</svg>
