<svg width="36" height="36" viewBox="0 0 36 36" fill="none" xmlns="http://www.w3.org/2000/svg">
<path fill-rule="evenodd" clip-rule="evenodd" d="M22.8 12H26.4C28.392 12 30 13.608 30 15.6V25.2C30 27.192 28.392 28.8 26.4 28.8H9.6C7.608 28.8 6 27.192 6 25.2V15.6C6 13.608 7.608 12 9.6 12H13.2V10.2C13.2 8.54401 14.544 7.20001 16.2 7.20001H19.8C21.456 7.20001 22.8 8.54401 22.8 10.2V12ZM16.2 9.60001C15.864 9.60001 15.6 9.86401 15.6 10.2V12H20.4V10.2C20.4 9.86401 20.136 9.60001 19.8 9.60001H16.2ZM26.4 26.4C27.06 26.4 27.6 25.86 27.6 25.2V15.6C27.6 14.94 27.06 14.4 26.4 14.4H9.6C8.94 14.4 8.4 14.94 8.4 15.6V25.2C8.4 25.86 8.94 26.4 9.6 26.4H26.4ZM19.1399 18.924H21.2879C21.6479 18.924 21.9359 19.212 21.9359 19.572V20.556C21.9359 20.916 21.6479 21.204 21.2879 21.204H19.1399V23.352C19.1399 23.712 18.8519 24 18.4919 24H17.5079C17.1479 24 16.8599 23.712 16.8599 23.352V21.204H14.7119C14.3519 21.204 14.0639 20.916 14.0639 20.556V19.572C14.0639 19.212 14.3519 18.924 14.7119 18.924H16.8599V16.776C16.8599 16.416 17.1479 16.128 17.5079 16.128H18.4919C18.8519 16.128 19.1399 16.416 19.1399 16.776V18.924Z" fill="#FDAAA2"/>
</svg>
