<svg width="65" height="65" viewBox="0 0 65 65" fill="none" xmlns="http://www.w3.org/2000/svg">
<g filter="url(#filter0_d_3637_797)">
<path d="M32.9492 5.14014C28.0047 5.14014 23.1712 6.60636 19.06 9.3534C14.9487 12.1004 11.7444 16.0049 9.85224 20.573C7.96005 25.1412 7.46497 30.1679 8.4296 35.0174C9.39423 39.8669 11.7752 44.3215 15.2716 47.8178C18.7679 51.3141 23.2224 53.6951 28.072 54.6598C32.9215 55.6244 37.9482 55.1293 42.5163 53.2371C47.0845 51.3449 50.9889 48.1406 53.736 44.0294C56.483 39.9182 57.9492 35.0847 57.9492 30.1401C57.9492 26.8571 57.3026 23.6062 56.0462 20.573C54.7898 17.5399 52.9484 14.7839 50.6269 12.4625C48.3054 10.141 45.5494 8.29952 42.5163 7.04315C39.4832 5.78678 36.2323 5.14014 32.9492 5.14014ZM32.9492 42.6401C32.4548 42.6401 31.9714 42.4935 31.5603 42.2188C31.1492 41.9441 30.8287 41.5536 30.6395 41.0968C30.4503 40.64 30.4008 40.1374 30.4973 39.6524C30.5937 39.1674 30.8318 38.722 31.1815 38.3724C31.5311 38.0227 31.9765 37.7846 32.4615 37.6882C32.9465 37.5917 33.4491 37.6412 33.9059 37.8304C34.3628 38.0196 34.7532 38.3401 35.0279 38.7512C35.3026 39.1623 35.4492 39.6457 35.4492 40.1401C35.4492 40.8032 35.1858 41.4391 34.717 41.9079C34.2481 42.3767 33.6123 42.6401 32.9492 42.6401ZM35.4492 32.6401C35.4492 33.3032 35.1858 33.9391 34.717 34.4079C34.2481 34.8767 33.6123 35.1401 32.9492 35.1401C32.2862 35.1401 31.6503 34.8767 31.1815 34.4079C30.7126 33.9391 30.4492 33.3032 30.4492 32.6401V20.1401C30.4492 19.4771 30.7126 18.8412 31.1815 18.3724C31.6503 17.9035 32.2862 17.6401 32.9492 17.6401C33.6123 17.6401 34.2481 17.9035 34.717 18.3724C35.1858 18.8412 35.4492 19.4771 35.4492 20.1401V32.6401Z" fill="#262626"/>
</g>
<defs>
<filter id="filter0_d_3637_797" x="0.949219" y="0.140137" width="64" height="64" filterUnits="userSpaceOnUse" color-interpolation-filters="sRGB">
<feFlood flood-opacity="0" result="BackgroundImageFix"/>
<feColorMatrix in="SourceAlpha" type="matrix" values="0 0 0 0 0 0 0 0 0 0 0 0 0 0 0 0 0 0 127 0" result="hardAlpha"/>
<feOffset dy="2"/>
<feGaussianBlur stdDeviation="3.5"/>
<feComposite in2="hardAlpha" operator="out"/>
<feColorMatrix type="matrix" values="0 0 0 0 0.0392157 0 0 0 0 0.0392157 0 0 0 0 0.0392157 0 0 0 0.07 0"/>
<feBlend mode="normal" in2="BackgroundImageFix" result="effect1_dropShadow_3637_797"/>
<feBlend mode="normal" in="SourceGraphic" in2="effect1_dropShadow_3637_797" result="shape"/>
</filter>
</defs>
</svg>
