<svg width="24" height="23" viewBox="0 0 24 23" fill="none" xmlns="http://www.w3.org/2000/svg">
<path fill-rule="evenodd" clip-rule="evenodd" d="M6.37124 3.81479C7.86926 2.33176 9.89206 1.49989 12 1.5C14.1079 1.49989 16.1307 2.33176 17.6288 3.81479C19.1268 5.29782 19.9789 7.31216 20 9.42C20 14.9 13 21 12.65 21.26C12.4689 21.4149 12.2384 21.5001 12 21.5001C11.7616 21.5001 11.5311 21.4149 11.35 21.26L11.3484 21.2586C11.0253 20.9787 4 14.8904 4 9.42C4.02108 7.31216 4.87323 5.29782 6.37124 3.81479ZM6 9.42C6 13.15 10.33 17.56 12 19.15C13.67 17.56 18 13.12 18 9.42C18 7.8287 17.3679 6.30258 16.2426 5.17736C15.1174 4.05214 13.5913 3.42 12 3.42C10.4087 3.42 8.88258 4.05214 7.75736 5.17736C6.63214 6.30258 6 7.8287 6 9.42ZM10.0555 6.08986C10.6311 5.70527 11.3078 5.5 12 5.5C12.9283 5.5 13.8185 5.86875 14.4749 6.52513C15.1313 7.1815 15.5 8.07174 15.5 9C15.5 9.69223 15.2947 10.3689 14.9101 10.9445C14.5256 11.5201 13.9789 11.9687 13.3394 12.2336C12.6999 12.4985 11.9961 12.5678 11.3172 12.4327C10.6383 12.2977 10.0146 11.9644 9.52513 11.4749C9.03564 10.9854 8.7023 10.3617 8.56725 9.68282C8.4322 9.00388 8.50152 8.30015 8.76642 7.66061C9.03133 7.02107 9.47993 6.47444 10.0555 6.08986ZM11.1666 10.2472C11.4133 10.412 11.7033 10.5 12 10.5C12.3978 10.5 12.7794 10.342 13.0607 10.0607C13.342 9.77936 13.5 9.39782 13.5 9C13.5 8.70333 13.412 8.41332 13.2472 8.16665C13.0824 7.91997 12.8481 7.72771 12.574 7.61418C12.2999 7.50065 11.9983 7.47094 11.7074 7.52882C11.4164 7.5867 11.1491 7.72956 10.9393 7.93934C10.7296 8.14912 10.5867 8.41639 10.5288 8.70736C10.4709 8.99834 10.5007 9.29994 10.6142 9.57403C10.7277 9.84811 10.92 10.0824 11.1666 10.2472Z" fill="#FDAAA2"/>
</svg>
