<svg width="24" height="24" viewBox="0 0 24 24" fill="none" xmlns="http://www.w3.org/2000/svg">
<path d="M16.0545 9.18127L17.8585 7.3772L17.9121 8.69112C17.9203 8.91354 18.1057 9.08241 18.3281 9.07418L19.4649 9.02475C19.6873 9.01651 19.8562 8.83116 19.848 8.60874L19.6791 4.53516C19.6708 4.31274 19.4855 4.14387 19.2631 4.15211L15.1895 4.32098C14.9671 4.32922 14.7982 4.51457 14.8064 4.73699L14.8559 5.8738C14.8641 6.09622 15.0494 6.2651 15.2719 6.25686L16.5611 6.20331L14.8188 7.9456C11.7337 5.47015 7.21532 5.66374 4.35269 8.52636C1.28 11.5991 1.28 16.5747 4.35269 19.6474C7.42538 22.7201 12.4051 22.7159 15.4737 19.6474C18.3363 16.7847 18.5299 12.2663 16.0545 9.18127ZM6.00025 17.9998C3.84195 15.8415 3.84195 12.3322 6.00025 10.1739C8.15855 8.01562 11.6678 8.01562 13.8261 10.1739C15.9844 12.3322 15.9844 15.8415 13.8261 17.9998C11.6678 20.1581 8.15855 20.1581 6.00025 17.9998Z" fill="#70D4F4"/>
</svg>
