<svg width="24" height="24" viewBox="0 0 24 24" fill="none" xmlns="http://www.w3.org/2000/svg">
<path fill-rule="evenodd" clip-rule="evenodd" d="M17.634 4.48799V5.42699C18.3811 5.42699 19.0976 5.72378 19.6259 6.25207C20.1542 6.78036 20.451 7.49687 20.451 8.24399V18.573C20.451 19.3201 20.1542 20.0366 19.6259 20.5649C19.0976 21.0932 18.3811 21.39 17.634 21.39H6.36595C5.61884 21.39 4.90232 21.0932 4.37403 20.5649C3.84574 20.0366 3.54895 19.3201 3.54895 18.573V8.24399C3.54895 7.49687 3.84574 6.78036 4.37403 6.25207C4.90232 5.72378 5.61884 5.42699 6.36595 5.42699V4.48799C6.36595 3.98991 6.56381 3.51223 6.916 3.16004C7.2682 2.80785 7.74587 2.60999 8.24395 2.60999H15.7559C16.254 2.60999 16.7317 2.80785 17.0839 3.16004C17.4361 3.51223 17.634 3.98991 17.634 4.48799ZM15.7559 4.48799H8.24395V8.24399H15.7559V4.48799ZM18.2979 19.237C18.474 19.0609 18.573 18.822 18.573 18.573V8.24399C18.573 7.99495 18.474 7.75611 18.2979 7.58001C18.1218 7.40392 17.883 7.30499 17.634 7.30499V8.24399C17.634 8.74206 17.4361 9.21974 17.0839 9.57193C16.7317 9.92412 16.254 10.122 15.7559 10.122H8.24395C7.74587 10.122 7.2682 9.92412 6.916 9.57193C6.56381 9.21974 6.36595 8.74206 6.36595 8.24399V7.30499C6.11691 7.30499 5.87807 7.40392 5.70198 7.58001C5.52588 7.75611 5.42695 7.99495 5.42695 8.24399V18.573C5.42695 18.822 5.52588 19.0609 5.70198 19.237C5.87807 19.4131 6.11691 19.512 6.36595 19.512H17.634C17.883 19.512 18.1218 19.4131 18.2979 19.237ZM12.4773 13.6446C12.4773 14.0343 12.1614 14.3501 11.7718 14.3501C11.3821 14.3501 11.0662 14.0343 11.0662 13.6446C11.0662 13.2549 11.3821 12.939 11.7718 12.939C12.1614 12.939 12.4773 13.2549 12.4773 13.6446ZM14.594 14.3501C14.9837 14.3501 15.2996 14.0343 15.2996 13.6446C15.2996 13.2549 14.9837 12.939 14.594 12.939C14.2043 12.939 13.8885 13.2549 13.8885 13.6446C13.8885 14.0343 14.2043 14.3501 14.594 14.3501ZM9.65508 13.6446C9.65508 14.0343 9.33919 14.3501 8.94952 14.3501C8.55985 14.3501 8.24396 14.0343 8.24396 13.6446C8.24396 13.2549 8.55985 12.939 8.94952 12.939C9.33919 12.939 9.65508 13.2549 9.65508 13.6446Z" fill="#FDAAA2"/>
</svg>
