<svg width="24" height="24" viewBox="0 0 24 24" fill="none" xmlns="http://www.w3.org/2000/svg">
<path fill-rule="evenodd" clip-rule="evenodd" d="M19.5793 14.7935C19.68 14.8845 19.756 14.9996 19.8 15.128C19.8675 15.3179 19.9184 15.5133 19.952 15.712C19.9842 15.9131 20.0002 16.1164 20 16.32C20 16.8033 19.9048 17.2818 19.7199 17.7283C19.5349 18.1747 19.2639 18.5804 18.9221 18.9221C18.5804 19.2639 18.1747 19.5349 17.7283 19.7199C17.2818 19.9048 16.8033 20 16.32 20C13.0538 19.9958 9.92265 18.6964 7.61312 16.3869C5.30359 14.0773 4.00423 10.9462 4 7.68C4 6.704 4.38771 5.76798 5.07785 5.07785C5.76798 4.38771 6.704 4 7.68 4C7.88747 4.00632 8.0938 4.03312 8.296 4.08C8.49225 4.10904 8.68517 4.15727 8.872 4.224C9.00043 4.268 9.11554 4.34396 9.20651 4.44473C9.29748 4.5455 9.36132 4.66776 9.392 4.8L10.488 9.544C10.5175 9.67429 10.514 9.8099 10.4776 9.93847C10.4413 10.067 10.3734 10.1844 10.28 10.28C10.1818 10.3932 10.1692 10.3996 9.31407 10.8303C9.26311 10.856 9.20915 10.8832 9.152 10.912C9.93999 12.6407 11.3226 14.0289 13.048 14.824C13.568 13.832 13.576 13.824 13.688 13.72C13.7836 13.6266 13.901 13.5587 14.0295 13.5223C14.1581 13.486 14.2937 13.4825 14.424 13.512L19.224 14.608C19.3562 14.6387 19.4785 14.7025 19.5793 14.7935ZM8.74215 15.2578C10.7521 17.2678 13.4775 18.3979 16.32 18.4C16.871 18.3979 17.3988 18.1781 17.7885 17.7885C18.1781 17.3988 18.3979 16.871 18.4 16.32V16.056L14.696 15.208L14.464 15.648C14.104 16.344 13.84 16.848 13.168 16.576C11.8423 16.1015 10.639 15.3376 9.64539 14.3399C8.65182 13.3422 7.89298 12.1357 7.424 10.808C7.136 10.184 7.68 9.896 8.368 9.536L8.8 9.312L7.944 5.6H7.68C7.129 5.60211 6.60117 5.82193 6.21155 6.21155C5.82193 6.60117 5.60211 7.129 5.6 7.68C5.60212 10.5225 6.73222 13.2479 8.74215 15.2578ZM12.8 5.6C14.2852 5.6 15.7096 6.19 16.7598 7.2402C17.81 8.2904 18.4 9.71479 18.4 11.2C18.4 11.4122 18.4843 11.6157 18.6343 11.7657C18.7843 11.9157 18.9878 12 19.2 12C19.4122 12 19.6157 11.9157 19.7657 11.7657C19.9157 11.6157 20 11.4122 20 11.2C20 9.29044 19.2414 7.45909 17.8912 6.10883C16.5409 4.75857 14.7096 4 12.8 4C12.5878 4 12.3843 4.08429 12.2343 4.23431C12.0843 4.38434 12 4.58783 12 4.8C12 5.01217 12.0843 5.21566 12.2343 5.36569C12.3843 5.51571 12.5878 5.6 12.8 5.6ZM12.8 8.80019C13.4365 8.80019 14.047 9.05305 14.4971 9.50314C14.9471 9.95323 15.2 10.5637 15.2 11.2002C15.2 11.4124 15.2843 11.6159 15.4343 11.7659C15.5843 11.9159 15.7878 12.0002 16 12.0002C16.2122 12.0002 16.4157 11.9159 16.5657 11.7659C16.7157 11.6159 16.8 11.4124 16.8 11.2002C16.8 10.1393 16.3786 9.12191 15.6284 8.37177C14.8783 7.62162 13.8609 7.2002 12.8 7.2002C12.5878 7.2002 12.3843 7.28448 12.2343 7.43451C12.0843 7.58454 12 7.78802 12 8.0002C12 8.21237 12.0843 8.41585 12.2343 8.56588C12.3843 8.71591 12.5878 8.80019 12.8 8.80019Z" fill="white"/>
</svg>
