<svg width="25" height="24" viewBox="0 0 25 24" fill="none" xmlns="http://www.w3.org/2000/svg">
<path d="M21.2071 19.2871L17.8071 15.8971C18.9041 14.4995 19.4993 12.7737 19.4971 10.9971C19.4971 9.41482 19.0279 7.8681 18.1488 6.55251C17.2698 5.23692 16.0204 4.21154 14.5585 3.60604C13.0967 3.00054 11.4882 2.84211 9.93635 3.15079C8.3845 3.45947 6.95904 4.2214 5.84022 5.34022C4.7214 6.45904 3.95947 7.8845 3.65079 9.43635C3.34211 10.9882 3.50054 12.5967 4.10604 14.0585C4.71154 15.5204 5.73692 16.7698 7.05251 17.6488C8.3681 18.5279 9.91482 18.9971 11.4971 18.9971C13.2737 18.9993 14.9995 18.4041 16.3971 17.3071L19.7871 20.7071C19.88 20.8008 19.9906 20.8752 20.1125 20.926C20.2344 20.9767 20.3651 21.0029 20.4971 21.0029C20.6291 21.0029 20.7598 20.9767 20.8817 20.926C21.0035 20.8752 21.1141 20.8008 21.2071 20.7071C21.3008 20.6141 21.3752 20.5035 21.426 20.3817C21.4767 20.2598 21.5029 20.1291 21.5029 19.9971C21.5029 19.8651 21.4767 19.7344 21.426 19.6125C21.3752 19.4906 21.3008 19.38 21.2071 19.2871ZM5.49707 10.9971C5.49707 9.81039 5.84897 8.65035 6.50826 7.66365C7.16754 6.67696 8.10462 5.90792 9.20097 5.4538C10.2973 4.99967 11.5037 4.88085 12.6676 5.11236C13.8315 5.34387 14.9006 5.91532 15.7397 6.75443C16.5788 7.59355 17.1503 8.66265 17.3818 9.82653C17.6133 10.9904 17.4945 12.1968 17.0404 13.2932C16.5862 14.3895 15.8172 15.3266 14.8305 15.9859C13.8438 16.6452 12.6838 16.9971 11.4971 16.9971C9.90578 16.9971 8.37965 16.3649 7.25443 15.2397C6.12922 14.1145 5.49707 12.5884 5.49707 10.9971Z" fill="white"/>
</svg>
